<svg xmlns="http://www.w3.org/2000/svg" viewBox="0 0 48 48">
	<symbol id="reset" viewBox="0 0 48 48">
		<path d="M34,25A10,10,0,0,0,24,15V13l-3,3,3,3V17a8,8,0,1,1-5.66,2.34l-1.41-1.41A10,10,0,1,0,34,25Z"/>
	</symbol>
	<symbol id="settings" viewBox="0 0 48 48">
		<path d="M31.89,22.73l1.77-2-2-3.46-2.61.53a8,8,0,0,0-2.2-1.26L26,14H22l-.84,2.52a8.15,8.15,0,0,0-1.16.55,8,8,0,0,0-1.06.73l-2.6-.53-2,3.46,1.78,2a7.67,7.67,0,0,0,0,2.53l-1.77,2,2,3.46L19,30.2a8,8,0,0,0,2.2,1.26L22,34h4l.84-2.52A8.15,8.15,0,0,0,28,30.93a8,8,0,0,0,1.06-.73l2.6.53,2-3.46-1.78-2A7.67,7.67,0,0,0,31.89,22.73ZM25.5,26.6a3,3,0,1,1,1.1-4.1A3,3,0,0,1,25.5,26.6Z"/>
	</symbol>
	<symbol id="share" viewBox="0 0 48 48">
	    <circle cx="30.93" cy="16" r="3"/>
	    <rect x="16" y="19" width="16" height="2" transform="matrix(0.87, -0.5, 0.5, 0.87, -6.78, 14.68)"/>
	    <circle cx="17.07" cy="24" r="3"/>
	    <circle cx="30.93" cy="32" r="3"/>
	    <rect x="16" y="27" width="16" height="2" transform="matrix(0.87, 0.5, -0.5, 0.87, 17.22, -8.25)"/>
	</symbol>
	<symbol id="saveload" viewBox="0 0 48 48">
		<polygon points="19 34 24 29 14 29 19 34"/>
		<rect x="18" y="19" width="2" height="10"/>
		<polygon points="29 14 24 19 34 19 29 14"/>
		<rect x="28" y="19" width="2" height="10"/>
	</symbol>
	<symbol id="menu" viewBox="0 0 48 48">
		<rect x="14" y="14" width="20" height="4" rx="2" ry="2"/>
   		<rect x="14" y="22" width="20" height="4" rx="2" ry="2"/>
    	<rect x="14" y="30" width="20" height="4" rx="2" ry="2"/>
	</symbol>
	<symbol id="close" viewBox="0 0 48 48">
		<rect x="10.75" y="22" width="26.5" height="4" rx="2" ry="2" transform="translate(24 -9.94) rotate(45)"/>
  		<rect x="10.75" y="22" width="26.5" height="4" rx="2" ry="2" transform="translate(-9.94 24) rotate(-45)"/>
	</symbol>
</svg>